<svg xmlns="http://www.w3.org/2000/svg" xmlns:xlink="http://www.w3.org/1999/xlink" version="1.1" id="Layer_1" x="0px" y="0px" width="100%" viewBox="0 0 608 608" enable-background="new 0 0 608 608" xml:space="preserve">
    <path fill="#000000" opacity="1.000000" stroke="none" d=" M192.003998,508.914490   C183.853943,508.855011 176.149567,509.384155 168.619308,507.604004   C143.609512,501.691772 129.084137,478.624725 135.173355,453.756134   C140.275360,432.919312 145.331314,412.026245 151.653900,391.542755   C164.139175,351.093872 190.104233,321.766479 227.756241,302.591217   C231.533539,300.667511 234.252304,301.114258 237.706131,303.518982   C280.593567,333.379150 333.739532,333.287262 376.598358,303.251251   C380.223572,300.710663 383.053802,300.930908 386.619385,302.774994   C427.252106,323.789825 453.430359,356.396942 465.115601,400.594666   C469.406219,416.823181 472.355377,433.492676 477.810547,449.307709   C487.110229,476.268097 469.386139,509.519073 431.961792,508.999268   C399.473511,508.548004 366.973755,508.931793 334.479065,508.932281   C287.153717,508.933014 239.828339,508.920990 192.003998,508.914490  z"/>
    <path fill="#000000" opacity="1.000000" stroke="none" d=" M229.661621,269.301086   C181.477905,209.840714 213.247391,121.404610 288.046021,107.227936   C345.218384,96.392006 397.249542,134.164551 406.040009,190.398560   C414.384674,243.780823 378.764313,294.451752 325.746338,303.869080   C287.713989,310.624542 255.450150,298.872314 229.661621,269.301086  z"/>
</svg>