<svg xmlns="http://www.w3.org/2000/svg" xmlns:xlink="http://www.w3.org/1999/xlink" version="1.1" id="Layer_1" x="0px" y="0px" width="100%" viewBox="0 0 419 152" enable-background="new 0 0 419 152" xml:space="preserve">
<path fill="#FFFEFD" opacity="1.000000" stroke="none" d=" M1.000000,37.000000   C1.000000,25.004953 1.000000,13.009906 1.000000,1.011145   C140.604065,1.007430 280.208130,1.007430 419.906097,1.007430   C419.906097,51.582996 419.906097,102.166222 419.906097,152.874725   C280.333405,152.874725 140.666718,152.874725 1.000000,152.874725   C1.000000,141.594910 1.000000,130.266113 1.341768,118.635300   C2.880460,118.461792 4.077383,118.590294 5.512499,118.679977   C6.076230,118.611595 6.394867,118.645996 7.182495,118.877815   C31.778210,119.050194 55.899063,118.985100 80.016891,119.224663   C84.318367,119.267387 85.249901,117.821404 85.223190,113.813133   C85.060249,89.360313 85.156067,64.905830 85.108398,40.452015   C85.105766,39.105026 84.591522,37.759033 83.831070,36.466759   C56.562862,36.503201 29.779007,36.485462 2.800764,36.351654   C2.070918,36.490391 1.535459,36.745193 1.000000,37.000000  M296.469360,95.966713   C301.134369,102.245811 305.756134,108.557892 310.500763,114.776253   C311.453705,116.025162 312.838501,117.781548 314.084015,117.832130   C321.275879,118.124229 328.485687,117.974640 336.693878,117.974640   C328.220062,107.014450 320.449402,96.963737 312.558899,86.758018   C314.045105,85.736687 314.980347,85.063171 315.945435,84.435600   C324.525696,78.856003 328.088928,70.767029 325.917419,60.295124   C324.050385,51.291687 317.386444,46.274822 308.957672,45.751312   C294.772980,44.870296 280.493805,45.509975 266.121368,45.509975   C266.121368,69.497452 266.121368,93.544823 266.121368,117.721710   C272.491974,117.721710 278.551758,117.721710 285.081421,117.721710   C285.081421,108.849495 285.081421,100.267548 285.081421,91.632668   C289.830109,90.695839 293.776215,90.626915 296.469360,95.966713  M415.053497,78.633270   C414.414337,64.005814 408.756805,52.053059 394.638458,46.551434   C379.948639,40.827141 365.093018,41.200581 352.115936,51.516270   C341.636505,59.846558 339.345612,71.697205 339.959595,84.343719   C340.647491,98.514084 346.074554,110.237572 359.713715,115.843719   C373.769318,121.621056 388.179077,121.501915 401.129944,112.544113   C412.482666,104.691696 415.509308,92.727715 415.053497,78.633270  M134.208481,96.202072   C135.389694,94.004402 136.570923,91.806725 138.125809,88.913841   C144.972977,98.093323 151.103271,106.369690 157.317780,114.582344   C158.279709,115.853554 159.589828,117.747490 160.802811,117.797302   C168.137131,118.098450 175.490021,117.947189 183.796722,117.947189   C173.403824,104.290894 163.754318,91.611435 153.899521,78.662224   C163.274582,67.511269 172.494873,56.544384 182.350861,44.821396   C175.146088,44.821396 169.152695,44.592186 163.194672,44.950619   C161.214523,45.069744 158.743469,46.213066 157.491547,47.716473   C150.890259,55.643745 144.617676,63.844299 138.202255,71.927200   C137.182007,73.212624 136.015610,74.382057 133.928864,76.704720   C133.928864,65.071686 133.928864,55.148540 133.928864,45.138954   C127.471977,45.138954 121.414558,45.138954 115.256310,45.138954   C115.256310,69.523964 115.256310,93.574768 115.256310,117.732002   C121.611366,117.732002 127.679070,117.732002 134.205658,117.732002   C134.205658,110.655113 134.205658,103.867157 134.208481,96.202072  M213.795563,118.014984   C219.041779,118.014984 224.287979,118.014984 229.794144,118.014984   C229.794144,109.383591 229.624100,101.566689 229.892197,93.764847   C229.978622,91.249725 230.743698,88.498093 232.008209,86.326172   C239.293091,73.813614 246.827866,61.446663 254.254959,49.016617   C254.948669,47.855629 255.482117,46.598888 256.384308,44.799591   C250.004120,44.799591 244.506912,44.992699 239.032547,44.722939   C236.029114,44.574944 234.594513,45.837379 233.309982,48.306435   C229.245316,56.119370 224.979126,63.827469 220.454224,72.198952   C215.803574,63.912727 211.479843,56.103733 207.024323,48.370659   C206.252838,47.031666 204.968796,45.058521 203.844254,45.005116   C197.155991,44.687454 190.445023,44.848133 182.924271,44.848133   C188.063797,53.468277 192.141190,61.522957 197.343506,68.770134   C207.080872,82.334923 213.024918,96.722382 210.343384,113.759109   C210.191589,114.723557 210.122452,115.907402 210.553574,116.693756   C210.916656,117.355957 212.064209,117.588058 213.795563,118.014984  z"/>
<path fill="#F1C3C3" opacity="1.000000" stroke="none" d=" M1.000000,37.468658   C1.535459,36.745193 2.070918,36.490391 2.733161,36.855453   C2.852592,63.007221 2.802683,88.539352 2.942211,114.070457   C2.950702,115.624107 4.462165,117.169548 5.274306,118.718803   C4.077383,118.590294 2.880460,118.461792 1.341768,118.166641   C1.000000,91.312439 1.000000,64.624878 1.000000,37.468658  z"/>
<path fill="#CC2E2E" opacity="1.000000" stroke="none" d=" M5.512498,118.679977   C4.462165,117.169548 2.950702,115.624107 2.942211,114.070457   C2.802683,88.539352 2.852592,63.007221 2.927547,36.971519   C29.779007,36.485462 56.562862,36.503201 83.765022,36.973549   C84.183327,64.184547 84.183327,90.942940 84.183327,118.179237   C81.505211,118.179237 79.541206,118.179260 77.577194,118.179222   C55.748756,118.178787 33.920300,118.165108 12.091928,118.202454   C10.296515,118.205528 8.501698,118.555534 6.706603,118.744347   C6.394867,118.645996 6.076230,118.611595 5.512498,118.679977  M55.384098,91.105560   C60.869423,94.364441 66.354752,97.623329 72.290863,101.150024   C72.290863,85.768120 72.290863,71.256500 72.290863,55.900097   C60.872604,64.454803 50.068638,72.549278 38.743111,81.034508   C44.579956,84.576889 49.664131,87.662483 55.384098,91.105560  M55.707916,50.863510   C55.636257,50.125179 55.609928,48.751789 55.486195,48.742954   C53.331482,48.589134 51.164837,48.584156 49.000771,48.582878   C37.729305,48.576214 26.457832,48.579773 14.987705,48.579773   C14.987705,59.647930 14.987705,70.111267 14.987705,81.353699   C28.775383,71.018005 41.924572,61.160938 55.707916,50.863510  M14.651055,105.978111   C27.786539,105.978111 40.922024,105.978111 55.022858,105.978111   C45.937717,100.516212 37.501373,95.430336 29.037735,90.390297   C28.519526,90.081703 27.559998,89.811203 27.186518,90.070770   C23.245119,92.809975 19.080534,95.347397 15.649608,98.640671   C14.348852,99.889244 14.787741,102.950172 14.651055,105.978111  z"/>
<path fill="#CB2D2D" opacity="1.000000" stroke="none" d=" M296.241577,95.679802   C293.776215,90.626915 289.830109,90.695839 285.081421,91.632668   C285.081421,100.267548 285.081421,108.849495 285.081421,117.721710   C278.551758,117.721710 272.491974,117.721710 266.121368,117.721710   C266.121368,93.544823 266.121368,69.497452 266.121368,45.509975   C280.493805,45.509975 294.772980,44.870296 308.957672,45.751312   C317.386444,46.274822 324.050385,51.291687 325.917419,60.295124   C328.088928,70.767029 324.525696,78.856003 315.945435,84.435600   C314.980347,85.063171 314.045105,85.736687 312.558899,86.758018   C320.449402,96.963737 328.220062,107.014450 336.693878,117.974640   C328.485687,117.974640 321.275879,118.124229 314.084015,117.832130   C312.838501,117.781548 311.453705,116.025162 310.500763,114.776253   C305.756134,108.557892 301.134369,102.245811 296.241577,95.679802  M297.963928,59.021336   C293.743744,59.021336 289.523590,59.021336 285.403473,59.021336   C285.403473,65.505341 285.403473,71.524773 285.403473,77.724670   C288.114197,77.724670 290.422638,77.797607 292.723846,77.700081   C294.373383,77.630165 296.027740,77.412819 297.654816,77.121147   C303.068970,76.150589 305.971313,73.203018 306.306671,68.437088   C306.674896,63.204170 304.880920,60.968761 297.963928,59.021336  z"/>
<path fill="#CC2E2E" opacity="1.000000" stroke="none" d=" M415.071045,79.109833   C415.509308,92.727715 412.482666,104.691696 401.129944,112.544113   C388.179077,121.501915 373.769318,121.621056 359.713715,115.843719   C346.074554,110.237572 340.647491,98.514084 339.959595,84.343719   C339.345612,71.697205 341.636505,59.846558 352.115936,51.516270   C365.093018,41.200581 379.948639,40.827141 394.638458,46.551434   C408.756805,52.053059 414.414337,64.005814 415.071045,79.109833  M360.916443,72.656654   C359.226471,80.305763 359.326080,87.882240 362.552185,95.112595   C365.359619,101.404663 370.269745,104.947777 377.356506,105.036812   C384.477783,105.126282 389.578094,101.625175 392.303528,95.364334   C396.400177,85.953644 396.481110,76.231094 392.066315,66.867111   C387.759552,57.732235 376.103363,54.365108 368.525574,60.514191   C365.171478,63.235905 363.473236,67.998161 360.916443,72.656654  z"/>
<path fill="#CB2D2D" opacity="1.000000" stroke="none" d=" M134.207062,96.640640   C134.205658,103.867157 134.205658,110.655113 134.205658,117.732002   C127.679070,117.732002 121.611366,117.732002 115.256310,117.732002   C115.256310,93.574768 115.256310,69.523964 115.256310,45.138954   C121.414558,45.138954 127.471977,45.138954 133.928864,45.138954   C133.928864,55.148540 133.928864,65.071686 133.928864,76.704720   C136.015610,74.382057 137.182007,73.212624 138.202255,71.927200   C144.617676,63.844299 150.890259,55.643745 157.491547,47.716473   C158.743469,46.213066 161.214523,45.069744 163.194672,44.950619   C169.152695,44.592186 175.146088,44.821396 182.350861,44.821396   C172.494873,56.544384 163.274582,67.511269 153.899521,78.662224   C163.754318,91.611435 173.403824,104.290894 183.796722,117.947189   C175.490021,117.947189 168.137131,118.098450 160.802811,117.797302   C159.589828,117.747490 158.279709,115.853554 157.317780,114.582344   C151.103271,106.369690 144.972977,98.093323 138.125809,88.913841   C136.570923,91.806725 135.389694,94.004402 134.207062,96.640640  z"/>
<path fill="#CC2F2F" opacity="1.000000" stroke="none" d=" M213.330032,118.012772   C212.064209,117.588058 210.916656,117.355957 210.553574,116.693756   C210.122452,115.907402 210.191589,114.723557 210.343384,113.759109   C213.024918,96.722382 207.080872,82.334923 197.343506,68.770134   C192.141190,61.522957 188.063797,53.468277 182.924271,44.848133   C190.445023,44.848133 197.155991,44.687454 203.844254,45.005116   C204.968796,45.058521 206.252838,47.031666 207.024323,48.370659   C211.479843,56.103733 215.803574,63.912727 220.454224,72.198952   C224.979126,63.827469 229.245316,56.119370 233.309982,48.306435   C234.594513,45.837379 236.029114,44.574944 239.032547,44.722939   C244.506912,44.992699 250.004120,44.799591 256.384308,44.799591   C255.482117,46.598888 254.948669,47.855629 254.254959,49.016617   C246.827866,61.446663 239.293091,73.813614 232.008209,86.326172   C230.743698,88.498093 229.978622,91.249725 229.892197,93.764847   C229.624100,101.566689 229.794144,109.383591 229.794144,118.014984   C224.287979,118.014984 219.041779,118.014984 213.330032,118.012772  z"/>
<path fill="#F1C3C3" opacity="1.000000" stroke="none" d=" M7.182495,118.877815   C8.501698,118.555534 10.296515,118.205528 12.091928,118.202454   C33.920300,118.165108 55.748756,118.178787 77.577194,118.179222   C79.541206,118.179260 81.505211,118.179237 84.183327,118.179237   C84.183327,90.942940 84.183327,64.184547 84.249374,36.919369   C84.591522,37.759033 85.105766,39.105026 85.108398,40.452015   C85.156067,64.905830 85.060249,89.360313 85.223190,113.813133   C85.249901,117.821404 84.318367,119.267387 80.016891,119.224663   C55.899063,118.985100 31.778210,119.050194 7.182495,118.877815  z"/>
<path fill="#FCF3F3" opacity="1.000000" stroke="none" d=" M55.066200,90.926819   C49.664131,87.662483 44.579956,84.576889 38.743111,81.034508   C50.068638,72.549278 60.872604,64.454803 72.290863,55.900097   C72.290863,71.256500 72.290863,85.768120 72.290863,101.150024   C66.354752,97.623329 60.869423,94.364441 55.066200,90.926819  z"/>
<path fill="#FEFAFA" opacity="1.000000" stroke="none" d=" M55.390839,51.083691   C41.924572,61.160938 28.775383,71.018005 14.987705,81.353699   C14.987705,70.111267 14.987705,59.647930 14.987705,48.579773   C26.457832,48.579773 37.729305,48.576214 49.000771,48.582878   C51.164837,48.584156 53.331482,48.589134 55.486195,48.742954   C55.609928,48.751789 55.636257,50.125179 55.390839,51.083691  z"/>
<path fill="#FBEDED" opacity="1.000000" stroke="none" d=" M14.542376,105.581573   C14.787741,102.950172 14.348852,99.889244 15.649608,98.640671   C19.080534,95.347397 23.245119,92.809975 27.186518,90.070770   C27.559998,89.811203 28.519526,90.081703 29.037735,90.390297   C37.501373,95.430336 45.937717,100.516212 55.022858,105.978111   C40.922024,105.978111 27.786539,105.978111 14.542376,105.581573  z"/>
<path fill="#FEF8F7" opacity="1.000000" stroke="none" d=" M298.398438,59.072838   C304.880920,60.968761 306.674896,63.204170 306.306671,68.437088   C305.971313,73.203018 303.068970,76.150589 297.654816,77.121147   C296.027740,77.412819 294.373383,77.630165 292.723846,77.700081   C290.422638,77.797607 288.114197,77.724670 285.403473,77.724670   C285.403473,71.524773 285.403473,65.505341 285.403473,59.021336   C289.523590,59.021336 293.743744,59.021336 298.398438,59.072838  z"/>
<path fill="#FEFBFB" opacity="1.000000" stroke="none" d=" M360.969879,72.245377   C363.473236,67.998161 365.171478,63.235905 368.525574,60.514191   C376.103363,54.365108 387.759552,57.732235 392.066315,66.867111   C396.481110,76.231094 396.400177,85.953644 392.303528,95.364334   C389.578094,101.625175 384.477783,105.126282 377.356506,105.036812   C370.269745,104.947777 365.359619,101.404663 362.552185,95.112595   C359.326080,87.882240 359.226471,80.305763 360.969879,72.245377  z"/>
</svg>